<?xml version="1.0" encoding="utf-8"?>
<!-- Generator: Adobe Illustrator 17.1.0, SVG Export Plug-In . SVG Version: 6.00 Build 0)  -->
<!DOCTYPE svg PUBLIC "-//W3C//DTD SVG 1.1//EN" "http://www.w3.org/Graphics/SVG/1.1/DTD/svg11.dtd">
<svg version="1.1" id="Layer_1" xmlns="http://www.w3.org/2000/svg" xmlns:xlink="http://www.w3.org/1999/xlink" x="0px" y="0px"
	 viewBox="0 0 381.038 357.217" enable-background="new 0 0 381.038 357.217" xml:space="preserve">
<path opacity="0.85" fill="#5AFFFF" d="M342.059,313.885c0,7.941-6.498,14.439-14.439,14.439l-121.342,0.569
	c-5.59-1.518-14.736-1.518-20.326,0l-121.342-0.569c-7.941,0-14.439-6.498-14.439-14.439V44.231c0-7.942,4.999-21.972,21.096-21.972
	h102.522c5.504,0,14.501,0.316,19.991,0.703l4.671,0.329c5.491,0.386,13.826,3.052,18.522,5.923c0,0,105.994,64.802,112.768,68.946
	c6.774,4.143,12.319,14.03,12.319,21.972V313.885z"/>
<g display="none">
</g>
</svg>
